<mxfile host="app.diagrams.net" modified="2021-07-28T06:44:32.470Z" agent="5.0 (Windows)" etag="QCFgAbIu2ELk8mHpKoed" version="14.7.7" type="github">
  <diagram id="Up9UbGRrX_nPrRD4ef_L" name="Page-1">
    <mxGraphModel dx="1038" dy="508" grid="1" gridSize="10" guides="1" tooltips="1" connect="1" arrows="1" fold="1" page="1" pageScale="1" pageWidth="1169" pageHeight="827" math="0" shadow="0">
      <root>
        <mxCell id="0" />
        <mxCell id="1" parent="0" />
        <mxCell id="DuP928JgmqVkN7yUHcAI-1" value="ANNUAL BUDGET PREPARATION PROCESS" style="swimlane;" vertex="1" parent="1">
          <mxGeometry x="100" y="30" width="810" height="330" as="geometry" />
        </mxCell>
      </root>
    </mxGraphModel>
  </diagram>
</mxfile>
